<?xml version="1.0" standalone="no"?>
<!DOCTYPE svg PUBLIC "-//W3C//DTD SVG 20010904//EN"
 "http://www.w3.org/TR/2001/REC-SVG-20010904/DTD/svg10.dtd">
<svg version="1.0" xmlns="http://www.w3.org/2000/svg"
 width="1042.000000pt" height="1042.000000pt" viewBox="0 0 1042.000000 1042.000000"
 preserveAspectRatio="xMidYMid meet">
<metadata>
Created by potrace 1.16, written by Peter Selinger 2001-2019
</metadata>
<g transform="translate(0.000000,1042.000000) scale(0.100000,-0.100000)"
fill="#000000" stroke="none">
<path d="M4850 10049 c-937 -74 -1790 -395 -2535 -954 -964 -723 -1623 -1782
-1844 -2963 -60 -319 -75 -490 -75 -877 -1 -368 5 -457 50 -755 131 -864 493
-1660 1072 -2360 125 -151 446 -471 597 -596 809 -668 1762 -1048 2790 -1113
82 -5 151 -8 154 -6 3 3 -34 1496 -74 2970 -16 567 -21 621 -69 763 -13 37
-34 89 -47 115 -23 48 -25 49 -61 43 -70 -11 -253 -77 -366 -131 -158 -76
-263 -148 -597 -408 -159 -124 -291 -224 -293 -223 -2 2 100 136 226 298 266
340 323 422 397 573 58 117 135 336 138 393 2 34 1 35 -77 69 -158 68 -129 63
-1868 279 -252 32 -456 59 -453 62 2 3 195 28 427 57 1836 229 1729 213 1902
286 42 17 76 37 76 44 0 25 -60 224 -90 294 -41 101 -118 245 -174 328 -25 37
-149 201 -275 363 -126 162 -228 296 -226 298 2 2 142 -104 312 -236 345 -268
403 -308 563 -387 103 -50 309 -124 387 -138 31 -6 31 -6 67 80 70 165 55 67
282 1871 29 239 54 441 55 450 2 42 13 -32 64 -438 30 -239 88 -705 129 -1035
42 -330 84 -635 95 -678 18 -70 82 -242 95 -254 6 -7 171 40 261 74 100 37
257 117 350 177 44 29 214 157 378 285 165 128 301 231 303 229 2 -2 -98 -134
-223 -293 -260 -334 -324 -428 -399 -580 -51 -106 -126 -312 -139 -385 l-6
-35 88 -37 c48 -20 124 -46 168 -57 44 -11 334 -52 645 -91 812 -101 1514
-189 1520 -191 5 -2 -547 -72 -1505 -193 -619 -77 -699 -92 -840 -153 -33 -15
-64 -30 -68 -33 -21 -18 65 -274 148 -440 72 -143 130 -228 384 -553 128 -164
231 -300 229 -302 -2 -2 -136 100 -298 227 -347 271 -420 320 -594 404 -119
57 -340 134 -385 134 -37 0 -124 -246 -136 -385 -3 -33 -12 -303 -20 -600 -52
-1942 -76 -2908 -73 -2909 8 -6 282 16 428 35 1286 161 2452 839 3241 1884
685 906 1030 2050 959 3180 -56 894 -344 1729 -846 2455 -665 961 -1662 1654
-2784 1934 -287 72 -553 114 -845 136 -161 11 -542 11 -695 -1z"/>
</g>
</svg>
